<?xml version="1.0" encoding="utf-8"?>
<!-- Generator: Adobe Illustrator 15.1.0, SVG Export Plug-In . SVG Version: 6.00 Build 0)  -->
<!DOCTYPE svg PUBLIC "-//W3C//DTD SVG 1.1//EN" "http://www.w3.org/Graphics/SVG/1.1/DTD/svg11.dtd">
<svg version="1.1" id="Layer_1" xmlns="http://www.w3.org/2000/svg" xmlns:xlink="http://www.w3.org/1999/xlink" x="0px" y="0px"
	 width="100px" height="366.153px" viewBox="-9.187 -34.445 100 366.153" enable-background="new -9.187 -34.445 100 366.153"
	 xml:space="preserve">
<g>
	<path d="M36.527-33.186c3.323,2.514,4.985,4.483,4.985,5.909c0,0.484-0.335,1.168-1,2.052c-0.889,1.45-2.001,3.222-3.333,5.313
		c-2.555,4.266-6.33,9.819-11.33,16.662C19.629,4.477,13.131,10.634,6.356,15.222c-7.11,4.749-11.941,7.125-14.495,7.125
		c-0.699,0-1.048-0.203-1.048-0.612c0-0.242,0.417-0.645,1.254-1.21C-1.607,16.406,5.618,9.707,13.736,0.423
		c6.208-6.778,11.223-13.842,15.045-21.188c1.669-2.906,2.506-6.416,2.506-10.534c0-2.097,0.639-3.146,1.918-3.146
		C33.884-34.442,34.992-34.023,36.527-33.186z M15.831,26.649c0,0,0.566,0.217,1.698,0.647c2.477,0.862,3.715,1.904,3.715,3.124
		c0,1.374,0.092,2.81,0.284,4.302c1.196,9.143,1.792,15.445,1.792,18.909c0,1.189-0.18,2.136-0.538,2.836
		c-0.359,0.77-0.791,1.156-1.292,1.156c-0.575,0-1.148-0.465-1.725-1.393c-0.862-1.215-1.33-2.501-1.399-3.858l-1.208-8.63
		c-0.47-4.495-0.975-7.643-1.511-9.443c-0.336-1.857-1.209-3.567-2.619-5.125c-0.539-0.419-0.807-0.717-0.807-0.899
		c0-1.084,0.459-1.627,1.379-1.627C15.088,26.649,15.831,26.649,15.831,26.649z M49.531,8.452c1.419,0.616,2.131,1.388,2.131,2.313
		c0,0.501-0.648,0.896-1.938,1.181c-1.496,0.501-4.829,1.146-9.997,1.933c-7.819,1.075-12.918,1.611-15.298,1.611
		c-3.174,0-5.381-0.355-6.618-1.067c-1.241-0.868-1.858-1.621-1.858-2.254c0-0.426,0.952-0.675,2.856-0.747
		c4.491-0.426,9.42-1.139,14.796-2.135c3.741-0.641,6.769-1.316,9.081-2.027c0.818-0.285,1.362-0.427,1.633-0.427
		C45.663,6.833,47.4,7.373,49.531,8.452z M54.877,22.131c0,0,1.191,0.772,3.577,2.313c2.981,2.057,4.474,3.599,4.474,4.624
		c0,0.37-0.373,0.922-1.117,1.659c-1.065,0.922-1.916,2.306-2.555,4.147c-1.278,2.952-2.662,7.191-4.152,12.721
		c-0.43,1.049-1.506,1.923-3.227,2.622c-1.378,0.349-2.495,0.523-3.355,0.523c-0.259,0-0.689-0.175-1.291-0.521
		c-0.347-0.696-0.517-1.086-0.517-1.173c0-0.186,0.143-0.642,0.43-1.375c0.86-2.564,1.648-5.769,2.366-9.618
		c0.717-3.481,1.075-6.045,1.075-7.696c0-1.398-1.369-2.097-4.114-2.097c-1.428,0-5.347,0.564-11.751,1.691
		c-8.706,1.543-13.245,2.314-13.619,2.314c-1.287,0-2.396-0.396-3.324-1.189c-0.932-0.721-1.396-1.334-1.396-1.839
		c0-0.649,0.524-1.009,1.574-1.081h1.574c4.382-0.293,9.46-0.913,15.235-1.865c5.376-1.022,10.189-2.119,14.437-3.289
		c1.858-0.585,3.154-0.877,3.885-0.877C54.281,22.131,54.877,22.131,54.877,22.131z M51.575,46.762c0,0,1.063,0.511,3.188,1.536
		c1.66,1.117,2.491,2.047,2.491,2.793c0,0.479-0.476,0.72-1.425,0.72c-3.802,0-7.285,0.16-10.451,0.479l-14.725,1.077
		c-2.694,0.24-4.751,0.36-6.176,0.36c-1.963,0-3.299-0.357-4.012-1.072c-0.714-0.716-1.07-1.385-1.07-2.009
		c0-0.894,0.564-1.341,1.693-1.341c7.688-0.339,14.85-0.975,21.487-1.906c3.668-0.424,6.113-0.635,7.338-0.635
		C51.022,46.762,51.575,46.762,51.575,46.762z M44.29-17.59c9.498,9.613,16.552,15.905,21.16,18.876
		c4.75,2.971,12.361,6.554,22.836,10.75c1.396,0.523,2.096,1.047,2.096,1.573c0,0.579-0.673,1.012-2.019,1.301
		c-7.67,1.518-12.986,2.276-15.945,2.276c-1.887,0-3.836-0.651-5.854-1.951c-2.02-1.464-7.94-8.458-17.763-20.983
		c-2.963-3.902-5.788-7.235-8.477-10.003c-2.558-2.601-5.047-4.472-7.469-5.61c-0.943-0.161-1.413-0.65-1.413-1.464
		c0-0.877,0.72-1.317,2.164-1.317C35.979-24.145,39.541-21.96,44.29-17.59z"/>
	<path d="M17.029,172.416c1.163,0.862,1.747,1.763,1.747,2.702c0,0.283-0.272,0.583-0.814,0.905
		c-0.465,0.444-0.852,0.886-1.161,1.328c-1.009,1.126-2.131,2.332-3.371,3.62c-1.86,1.608-3.757,2.996-5.693,4.164
		c-1.86,1.005-3.642,1.789-5.347,2.354c-1.55,0.479-2.479,0.723-2.788,0.723c-0.646,0-0.968-0.136-0.968-0.403
		c2.016-1.506,3.529-2.788,4.539-3.851c2.325-2.08,4.305-4.139,5.935-6.174c1.396-1.769,2.326-3.186,2.794-4.248
		c0.388-0.573,0.58-1.147,0.58-1.726c0-0.538,0.312-0.808,0.935-0.808C14.737,171.006,15.94,171.476,17.029,172.416z
		 M42.815,158.097c1.082,0,2.341,0.323,3.783,0.968c1.081,0.72,1.622,1.472,1.622,2.261c0,0.571-0.78,0.894-2.337,0.965
		c-9.166,0.717-20.437,2.643-33.817,5.787c-2.844,0.788-4.628,1.181-5.363,1.181c-1.005,0-2.581-0.465-4.732-1.398
		c-1.577-0.932-2.366-1.756-2.366-2.475c0-0.428,0.679-0.713,2.039-0.857c7.066-0.785,18.525-2.571,34.378-5.357
		C39.916,158.456,42.181,158.097,42.815,158.097z M27.731,103.351c2.859,1.874,4.289,3.5,4.289,4.881
		c0,0.391-0.386,0.845-1.158,1.363c-0.675,0.78-1.399,1.753-2.172,2.921c-3.479,5.322-6.956,9.736-10.436,13.239
		c-2.801,2.857-5.989,5.322-9.563,7.4c-2.415,1.428-4.008,2.141-4.78,2.141c-0.495,0-0.739-0.123-0.739-0.37
		c0-0.253,0.289-0.567,0.868-0.943c3.089-2.767,6.177-6.102,9.266-10.003c2.798-3.521,5.355-7.546,7.673-12.077
		c1.447-2.767,2.17-5.346,2.17-7.738c0-1.332,0.445-1.997,1.332-1.997C25.266,102.169,26.349,102.564,27.731,103.351z
		 M12.038,150.271c2.211,0.459,3.872,0.968,4.98,1.521c0.976,0.646,1.464,1.519,1.464,2.624c0,2.744-1.129,4.114-3.389,4.114
		c-0.513,0-1.06-0.268-1.636-0.803c-1.092-0.966-2.631-3.001-4.62-6.11c-0.256-0.321-0.384-0.561-0.384-0.723
		c0.154-0.645,0.504-0.968,1.047-0.968C10.281,149.924,11.127,150.04,12.038,150.271z M57.372,129.689c0,0,1.305,0.564,3.915,1.688
		c1.771,1.125,2.656,1.99,2.656,2.594c0,0.403-0.245,1.16-0.732,2.268c-1.395,3.33-2.544,7.314-3.45,11.953
		c-0.836,4.74-1.254,10.086-1.254,16.035c0,7.333,2.143,13.438,6.429,18.324c3.834,3.87,7.781,5.804,11.842,5.804
		c1.866,0,3.021-1.224,3.463-3.671l1.866-10.553c0.088-1.225,0.266-1.838,0.533-1.838c0.301,0,0.552,0.6,0.753,1.794
		c1.405,7.176,2.709,11.908,3.917,14.2c0.902,1.495,1.354,2.741,1.354,3.736c0,0.936-0.708,1.778-2.122,2.529
		c-1.51,0.934-3.772,1.404-6.792,1.404c-7.709,0-14.157-2.951-19.346-8.853c-4.878-5.604-7.314-14.308-7.314-26.11
		c0-6.783-0.06-13.459-0.175-20.03c-0.046-1.695-0.067-2.86-0.067-3.498c0-0.755-0.524-1.136-1.574-1.136
		c-1.23,0-3.688,0.341-7.375,1.02c-7.992,1.497-15.676,3.131-23.051,4.898c-2.254,0.545-3.79,0.817-4.61,0.817
		c-1.173,0-2.599-0.415-4.274-1.245c-1.931-1.077-2.894-2.032-2.894-2.862c0-0.356,0.76-0.534,2.278-0.534
		c6.078-0.475,13.45-1.604,22.112-3.389c7.903-1.426,14.361-2.911,19.376-4.457c1.976-0.593,3.114-0.892,3.418-0.892
		C57,129.689,57.372,129.689,57.372,129.689z M27.824,144.84c2.221,0.942,3.334,1.958,3.334,3.055c0,0.443-0.161,0.938-0.481,1.48
		c-0.484,0.79-0.806,2.146-0.965,4.069c-0.563,3.899-0.846,11.151-0.846,21.755c0,1.924,0.075,3.946,0.224,6.067
		c0.146,1.774,0.221,3.207,0.221,4.292c0,2.59-0.554,4.985-1.657,7.184c-0.945,1.57-1.776,2.355-2.484,2.355
		c-0.553,0-1.302-1.06-2.249-3.173c-0.789-2.352-1.223-4.152-1.301-5.405c0-0.563,0.283-1.46,0.846-2.687
		c0.161-0.615,0.404-1.611,0.727-2.991c0.725-4.808,1.089-13.298,1.089-25.472c0-3.375-0.122-5.625-0.36-6.75
		c-0.243-1.073-0.606-1.893-1.087-2.455c-0.564-0.409-0.844-0.844-0.844-1.305c0-0.641,0.673-0.96,2.024-0.96
		C25.204,143.901,26.474,144.215,27.824,144.84z M57.567,108.016c1.8,1,2.7,1.785,2.7,2.354c0,0.715-0.613,1.178-1.836,1.391
		c-5.405,0.606-12.438,2.175-21.096,4.709c-4.298,1.208-6.604,1.813-6.91,1.813c-1.068,0-2.244-0.144-3.523-0.429
		c-2.14-0.501-3.207-1.145-3.207-1.932c0-0.397,0.368-0.645,1.108-0.747c5.659-1.094,13.379-3.482,23.161-7.165
		c2.646-0.996,4.153-1.493,4.522-1.493C53.064,106.519,54.756,107.017,57.567,108.016z M48.623,121.276
		c1.737,0.618,2.607,1.146,2.607,1.586c0,0.706-1.053,1.279-3.159,1.719c-1.85,0.337-3.416,0.674-4.696,1.011
		c-1.139,0.335-4.056,1.178-8.752,2.524c-2.562,0.674-4.41,1.01-5.549,1.01c-1.344,0-2.465-0.134-3.362-0.403
		c-1.343-0.447-2.016-0.94-2.016-1.478c0-0.807,1.052-1.254,3.161-1.345c5.309-1.173,10.473-2.701,15.488-4.579
		c1.474-0.469,2.286-0.705,2.434-0.705C45.419,120.615,46.701,120.835,48.623,121.276z M35.915,169.699
		c2.215,0.829,4.372,1.797,6.476,2.905c2.766,1.661,4.593,3.181,5.477,4.563c0.665,1.2,0.997,2.536,0.997,4.01
		c0,0.938-0.234,1.993-0.699,3.166c-0.544,0.861-1.243,1.291-2.097,1.291c-0.361,0-0.903-0.308-1.626-0.928
		c-1.203-0.886-2.71-2.743-4.514-5.57c-2.407-3.537-4.213-5.924-5.417-7.161c-0.964-0.885-1.444-1.546-1.444-1.991
		c0-0.466,0.174-0.699,0.524-0.699C34.034,169.284,34.81,169.424,35.915,169.699z M39.656,142.611c0.571,0,1.647,0.539,3.227,1.614
		c1.721,1.364,2.582,2.299,2.582,2.802c0,0.512-0.265,0.938-0.792,1.279c-1.919,1.622-4.961,3.755-9.127,6.398
		c-0.398,0.255-0.763,0.383-1.092,0.383c-0.202,0-0.303-0.141-0.303-0.423c0-0.08,0.092-0.24,0.283-0.482
		c1.055-1.847,1.957-3.614,2.704-5.304c0.994-2.088,1.68-3.896,2.054-5.424C39.313,142.892,39.469,142.611,39.656,142.611z"/>
	<path d="M-4.573,310.991c1.083,0.063,2.041,0.094,2.874,0.094c2.14,0,4.343-0.11,6.607-0.33c2.643-0.218,5.033-0.329,7.174-0.329
		c3.261,0,6.765,0.633,10.513,1.897c11.003,3.239,20.009,5.294,27.019,6.163c7.173,1.027,19.682,1.778,37.533,2.251
		c2.442,0,3.666,0.239,3.666,0.713c0,0.749-2.201,2.001-6.6,3.752c-10.844,4.337-17.648,6.506-20.417,6.506
		c-1.876,0-5.381-0.928-10.515-2.782c-13.448-5.485-24.493-9.601-33.131-12.343c-3.26-0.969-5.949-1.454-8.068-1.454
		c-4.347,0-8.072,0.601-11.177,1.798c-1.118,0.684-2.048,1.026-2.792,1.026c-1.261,0-2.649-0.673-4.161-2.016
		c-1.681-1.514-2.521-2.9-2.521-4.16c0-0.588,0.583-0.882,1.75-0.882C-6.24,310.897-5.489,310.93-4.573,310.991z M16.511,279.013
		c1.358,0.918,2.037,1.764,2.037,2.535c0,0.672-0.429,1.42-1.285,2.24c-1.868,1.644-3.698,3.622-5.49,5.936
		c-1.946,2.316-2.919,3.549-2.919,3.697c0,0.324,0.7,0.893,2.104,1.705c3.438,2.439,5.157,5.407,5.157,8.902
		c0,2.161-0.587,4.107-1.755,5.833c-1.393,1.947-2.491,2.919-3.294,2.919c-0.147,0-0.22-0.322-0.22-0.969
		c0-0.285,0.177-0.753,0.538-1.398c0.141-0.932,0.215-1.897,0.215-2.905c0-3.944-1.674-8.089-5.017-12.432
		c-0.807-0.473-1.208-1.025-1.208-1.658c0-0.15,0.769-2.401,2.304-6.747c0.409-1.067,0.614-1.678,0.614-1.83
		c0-0.565-0.346-0.848-1.035-0.848c-0.233,0-1.273,0.321-3.125,0.962c-2.433,0.534-4.285,0.799-5.559,0.799
		c-1.52,0-2.423-0.147-2.71-0.442c-1.521-0.444-2.277-0.924-2.277-1.438c0-0.53,0.714-0.947,2.14-1.252
		c4.011-0.909,8.291-2.615,12.835-5.116c1.338-0.756,2.096-1.136,2.272-1.136C12.044,276.371,13.939,277.252,16.511,279.013z
		 M4.621,252.279c3.623,0.787,6.342,1.653,8.154,2.596c1.598,1.104,2.397,2.601,2.397,4.49c0,3.199-1.317,4.8-3.952,4.8
		c-0.927,0-1.909-0.398-2.953-1.195c-1.966-1.433-4.745-4.458-8.333-9.077c-0.462-0.479-0.694-0.837-0.694-1.076
		c0.183-0.753,0.588-1.131,1.223-1.131C1.745,251.688,3.129,251.884,4.621,252.279z M75.721,256.166
		c2.603,1.632,3.906,2.875,3.906,3.729c-0.08,0.855-1.304,1.32-3.671,1.398c-6.728,0.154-14.415,0.655-23.063,1.5
		c-4.894,0.462-11.36,1.35-19.397,2.657c-1.572,0.308-2.533,0.461-2.882,0.461c-1.627,0-3.251-0.43-4.875-1.291
		c-1.937-0.781-2.904-1.524-2.904-2.229c0-0.313,0.728-0.624,2.185-0.937c16.248-1.921,29.583-3.727,40.007-5.416
		c3.648-0.69,5.951-1.037,6.907-1.037C72.329,255,73.592,255.39,75.721,256.166z M36.219,274.593
		c1.081,0.717,1.624,1.824,1.624,3.324c-0.287,18.605-0.653,29.226-1.096,31.864c-0.191,1.425-0.526,2.138-1.002,2.138
		c-0.792,0-1.582-0.722-2.374-2.165c-1.078-1.805-1.62-3.646-1.62-5.524c0-0.659,0.073-1.254,0.214-1.784
		c0.309-1.518,0.559-3.728,0.749-6.636c0.215-2.771,0.323-7.444,0.323-14.016c0-2.836-0.593-4.85-1.776-6.04
		c-0.444-0.428-0.666-0.743-0.666-0.94c0-0.788,0.539-1.184,1.621-1.184C33.803,273.628,35.137,273.95,36.219,274.593z
		 M35.934,243.328c3.166,0.901,5.543,1.895,7.124,2.975c1.398,1.264,2.097,2.977,2.097,5.142c0,2.745-1.13,4.115-3.389,4.115
		c-0.813,0-1.676-0.419-2.589-1.257c-1.729-1.508-4.166-4.69-7.314-9.551c-0.406-0.502-0.61-0.879-0.61-1.13
		c0.154-0.646,0.505-0.97,1.048-0.97C33.42,242.652,34.628,242.879,35.934,243.328z M67.834,272.244
		c1.907,1.02,2.864,1.911,2.864,2.676c0,0.626-0.293,1.774-0.881,3.442c-0.488,0.834-0.732,3.759-0.732,8.765
		c0,4.905,0.04,8.977,0.121,12.209c0.081,1.983,0.123,3.759,0.123,5.321c0,2.186-0.396,4.086-1.184,5.701
		c-0.945,1.899-1.851,2.85-2.717,2.85c-0.479,0-1.137-0.572-1.971-1.722c-1.198-1.725-1.793-3.256-1.793-4.597
		c0-0.668,0.094-1.628,0.282-2.872c0.188-1.34,0.284-2.632,0.284-3.876c0-14.807-0.45-23.005-1.347-24.591
		c-0.497-0.527-1.395-0.793-2.689-0.793c-2.49,0-6.118,0.444-10.883,1.331c-4.225,0.888-7.202,1.331-8.933,1.331
		c-1.368,0-2.479-0.3-3.332-0.897c-0.684-0.341-1.025-0.769-1.025-1.28c0-0.382,0.513-0.573,1.541-0.573
		c6.476-0.669,13.825-1.865,22.048-3.587c2.773-0.669,4.367-1.003,4.778-1.003C63.06,270.079,64.873,270.801,67.834,272.244z
		 M59.725,302.938c0,0,0.985,0.476,2.958,1.426c1.543,1.04,2.317,1.902,2.317,2.593c0,0.484-0.376,0.727-1.124,0.727
		c-2.994,0-5.739,0.162-8.234,0.484l-11.605,1.089c-2.12,0.242-3.742,0.363-4.866,0.363c-1.821,0-3.063-0.332-3.725-0.996
		c-0.663-0.664-0.993-1.285-0.993-1.865c0-0.829,0.524-1.246,1.574-1.246c5.907-0.343,11.413-0.988,16.515-1.931
		c2.82-0.43,4.699-0.645,5.641-0.645C59.211,302.938,59.725,302.938,59.725,302.938z M60.406,281.481
		c1.912,0.678,2.87,1.261,2.87,1.743c0,0.777-1.157,1.409-3.476,1.893c-1.852,0.196-3.416,0.396-4.697,0.596
		c-1.139,0.197-4.059,0.694-8.755,1.484c-2.563,0.397-4.413,0.595-5.551,0.595c-1.478,0-2.712-0.147-3.697-0.443
		c-1.479-0.491-2.219-1.034-2.219-1.627c0-0.889,1.158-1.381,3.476-1.479c5.28-0.774,10.413-1.785,15.4-3.022
		c1.466-0.311,2.271-0.466,2.42-0.466C56.882,280.755,58.293,280.996,60.406,281.481z M60.838,292.237
		c1.911,0.679,2.869,1.261,2.869,1.745c0,0.776-1.158,1.406-3.476,1.892c-1.853,0.23-3.417,0.459-4.697,0.69
		c-1.14,0.23-4.059,0.806-8.756,1.725c-2.563,0.459-4.413,0.689-5.551,0.689c-1.478,0-2.712-0.146-3.697-0.443
		c-1.479-0.492-2.219-1.035-2.219-1.627c0-0.887,1.158-1.381,3.476-1.479c5.28-0.87,10.413-2.001,15.401-3.396
		c1.466-0.347,2.271-0.521,2.42-0.521C57.313,291.51,58.724,291.755,60.838,292.237z M49.236,262.288
		c1.904,1.234,2.856,2.324,2.856,3.275c0,0.16-0.35,0.48-1.048,0.958c-0.818,0.882-1.574,1.761-2.272,2.642
		c-2.33,2.399-4.252,3.998-5.768,4.799c-1.048,0.64-1.746,0.959-2.097,0.959c-0.538-0.097-0.807-0.338-0.807-0.726
		c1.368-2.296,2.395-4.237,3.081-5.821c0.454-1.268,0.683-2.259,0.683-2.971c0-0.566-0.161-1.512-0.484-2.837
		c0.19-1.228,0.763-1.842,1.714-1.842C46.142,260.722,47.521,261.243,49.236,262.288z M67.289,240.013
		c2.148,1.35,3.223,2.496,3.223,3.445c0,0.249-0.303,0.539-0.906,0.869c-0.949,0.413-2.288,1.364-4.011,2.854
		c-2.677,2.399-5.696,4.716-9.061,6.948c-2.243,1.241-3.582,1.86-4.012,1.86c-0.314,0-0.471-0.156-0.471-0.47
		c2.972-3.788,5.271-7.167,6.9-10.129c1.342-2.473,2.014-4.322,2.014-5.563c0-0.983,0.478-1.477,1.432-1.477
		S64.983,238.904,67.289,240.013z"/>
</g>
</svg>
